<svg xmlns="http://www.w3.org/2000/svg" version="1.1" xmlns:xlink="http://www.w3.org/1999/xlink" xmlns:svgjs="http://svgjs.dev/svgjs" width="1500" height="1500" viewBox="0 0 1500 1500"><rect width="1500" height="1500" fill="#ffffff"></rect><g transform="matrix(0.6666666666666666,0,0,0.6666666666666666,249.39393939393938,619.7658617404888)"><svg viewBox="0 0 396 103" data-background-color="#ffffff" preserveAspectRatio="xMidYMid meet" height="390" width="1500" xmlns="http://www.w3.org/2000/svg" xmlns:xlink="http://www.w3.org/1999/xlink"><g id="tight-bounds" transform="matrix(1,0,0,1,0.2400000000000091,0.09275477203712512)"><svg viewBox="0 0 395.52 102.81430712874845" height="102.81430712874845" width="395.52"><g><svg viewBox="0 0 569.9109257864617 148.14673584101598" height="102.81430712874845" width="395.52"><g transform="matrix(1,0,0,1,174.3909257864617,27.18921763591819)"><svg viewBox="0 0 395.52 93.7683005691796" height="93.7683005691796" width="395.52"><g id="textblocktransform"><svg viewBox="0 0 395.52 93.7683005691796" height="93.7683005691796" width="395.52" id="textblock"><g><rect width="106.79039999999999" height="5.012640279580131" y="78.73097630430638" fill="#261f20" data-fill-palette-color="tertiary"></rect><rect width="106.79039999999999" height="5.012640279580131" y="78.73097630430638" x="288.7296" fill="#261f20" data-fill-palette-color="tertiary"></rect></g><g><svg viewBox="0 0 395.52 55.58419734629041" height="55.58419734629041" width="395.52"><g transform="matrix(1,0,0,1,0,0)"><svg width="395.52" viewBox="4.52 -36.23 261.26 36.72" height="55.58419734629041" data-palette-color="#000000"><path d="M4.52-26.42L8.91-26.42 8.91-9.67Q8.91-5.86 10.11-4.38 11.3-2.91 14.38-2.91L14.38-2.91Q17.53-2.91 19.36-5.05 21.19-7.2 21.19-11.11L21.19-11.11 21.19-26.42 25.61-26.42 25.61-5.64Q25.61-1.03 25.76 0L25.76 0 21.61 0Q21.58-0.12 21.56-0.66 21.53-1.2 21.5-1.89 21.46-2.59 21.41-4.52L21.41-4.52 21.34-4.52Q19.82-1.78 17.83-0.65 15.84 0.49 12.89 0.49L12.89 0.49Q8.54 0.49 6.53-1.67 4.52-3.83 4.52-8.81L4.52-8.81 4.52-26.42ZM38.74-22.95L34.64-22.95 34.64-26.42 38.79-26.42 40.21-33.3 43.14-33.3 43.14-26.42 53.68-26.42 53.68-22.95 43.14-22.95 43.14-7.03Q43.14-5.1 44.17-4.17 45.21-3.25 47.58-3.25L47.58-3.25Q50.85-3.25 54.83-4.08L54.83-4.08 54.83-0.73Q50.71 0.39 46.65 0.39L46.65 0.39Q42.7 0.39 40.72-1.28 38.74-2.95 38.74-6.57L38.74-6.57 38.74-22.95ZM86.88-2.71L86.88-2.71Q87.52-2.71 88.33-2.88L88.33-2.88 88.33-0.15Q86.66 0.24 84.93 0.24L84.93 0.24Q82.49 0.24 81.38-1.04 80.27-2.32 80.12-5.05L80.12-5.05 79.98-5.05Q78.39-2.1 76.23-0.81 74.07 0.49 70.89 0.49L70.89 0.49Q67.04 0.49 65.08-1.61 63.13-3.71 63.13-7.37L63.13-7.37Q63.13-15.89 74.21-16.02L74.21-16.02 79.98-16.11 79.98-17.55Q79.98-20.75 78.68-22.16 77.39-23.56 74.56-23.56L74.56-23.56Q71.67-23.56 70.41-22.53 69.14-21.51 68.89-19.36L68.89-19.36 64.3-19.78Q65.42-26.9 74.63-26.9L74.63-26.9Q79.51-26.9 81.97-24.62 84.42-22.34 84.42-18.02L84.42-18.02 84.42-6.64Q84.42-4.69 84.93-3.7 85.44-2.71 86.88-2.71ZM72.02-2.86L72.02-2.86Q74.36-2.86 76.17-3.98 77.97-5.1 78.97-6.98 79.98-8.86 79.98-10.86L79.98-10.86 79.98-13.04 75.34-12.94Q72.46-12.89 70.94-12.3 69.43-11.72 68.59-10.51 67.74-9.3 67.74-7.3L67.74-7.3Q67.74-5.3 68.83-4.08 69.92-2.86 72.02-2.86ZM119.5-26.42L114.86 0 109.88 0 106.39-11.5 105-16.43 104.05-13.04 99.94 0 94.99 0 90.52-26.42 94.87-26.42 97.14-11.6Q97.94-5.15 97.94-3.64L97.94-3.64Q98.89-7.54 99.36-8.86L99.36-8.86 102.65-19.21 107.37-19.21 110.54-8.84Q111.32-6.27 111.88-3.64L111.88-3.64Q111.88-4.37 111.98-5.47 112.08-6.57 112.22-7.73 112.37-8.89 112.52-9.94 112.66-10.99 112.74-11.6L112.74-11.6 115.2-26.42 119.5-26.42ZM146.79-13.23L146.79-13.23Q146.79-6.57 143.73-3.04 140.66 0.49 134.88 0.49L134.88 0.49Q129.21 0.49 126.2-3.08 123.18-6.64 123.18-13.23L123.18-13.23Q123.18-20.04 126.27-23.47 129.36-26.9 135.02-26.9L135.02-26.9Q140.98-26.9 143.89-23.51 146.79-20.12 146.79-13.23ZM142.18-13.23L142.18-13.23Q142.18-18.48 140.51-21.07 138.83-23.66 135.1-23.66L135.1-23.66Q131.31-23.66 129.56-21.02 127.8-18.38 127.8-13.23L127.8-13.23Q127.8-8.11 129.56-5.43 131.31-2.76 134.83-2.76L134.83-2.76Q138.71-2.76 140.44-5.37 142.18-7.98 142.18-13.23ZM177.48 0L172.33 0 163.39-12.18 160.17-9.79 160.17 0 155.77 0 155.77-36.23 160.17-36.23 160.17-13.6 171.76-26.42 176.92-26.42 166.2-15.06 177.48 0ZM206.89-2.71L206.89-2.71Q207.53-2.71 208.33-2.88L208.33-2.88 208.33-0.15Q206.67 0.24 204.94 0.24L204.94 0.24Q202.5 0.24 201.39-1.04 200.28-2.32 200.13-5.05L200.13-5.05 199.99-5.05Q198.4-2.1 196.24-0.81 194.08 0.49 190.9 0.49L190.9 0.49Q187.05 0.49 185.09-1.61 183.14-3.71 183.14-7.37L183.14-7.37Q183.14-15.89 194.22-16.02L194.22-16.02 199.99-16.11 199.99-17.55Q199.99-20.75 198.69-22.16 197.4-23.56 194.57-23.56L194.57-23.56Q191.68-23.56 190.41-22.53 189.15-21.51 188.9-19.36L188.9-19.36 184.31-19.78Q185.43-26.9 194.64-26.9L194.64-26.9Q199.52-26.9 201.97-24.62 204.43-22.34 204.43-18.02L204.43-18.02 204.43-6.64Q204.43-4.69 204.94-3.7 205.45-2.71 206.89-2.71ZM192.03-2.86L192.03-2.86Q194.37-2.86 196.18-3.98 197.98-5.1 198.98-6.98 199.99-8.86 199.99-10.86L199.99-10.86 199.99-13.04 195.35-12.94Q192.47-12.89 190.95-12.3 189.44-11.72 188.6-10.51 187.75-9.3 187.75-7.3L187.75-7.3Q187.75-5.3 188.84-4.08 189.93-2.86 192.03-2.86ZM237.48 0L232.33 0 223.4-12.18 220.17-9.79 220.17 0 215.78 0 215.78-36.23 220.17-36.23 220.17-13.6 231.77-26.42 236.92-26.42 226.2-15.06 237.48 0ZM244.54-26.42L248.93-26.42 248.93-9.67Q248.93-5.86 250.13-4.38 251.32-2.91 254.4-2.91L254.4-2.91Q257.55-2.91 259.38-5.05 261.21-7.2 261.21-11.11L261.21-11.11 261.21-26.42 265.63-26.42 265.63-5.64Q265.63-1.03 265.78 0L265.78 0 261.63 0Q261.6-0.12 261.58-0.66 261.55-1.2 261.52-1.89 261.48-2.59 261.43-4.52L261.43-4.52 261.36-4.52Q259.84-1.78 257.85-0.65 255.86 0.49 252.91 0.49L252.91 0.49Q248.56 0.49 246.55-1.67 244.54-3.83 244.54-8.81L244.54-8.81 244.54-26.42Z" opacity="1" transform="matrix(1,0,0,1,0,0)" fill="#000000" class="wordmark-text-0" data-fill-palette-color="primary" id="text-0"></path></svg></g></svg></g><g transform="matrix(1,0,0,1,106.79039999999999,68.70629231901327)"><svg viewBox="0 0 181.9392 25.062008250166336" height="25.062008250166336" width="181.9392"><g transform="matrix(1,0,0,1,8,0)"><svg width="165.9392" viewBox="3 -34.55 300.56 45.4" height="25.062008250166336" data-palette-color="#000000"><path d="M10.7-34.55Q15.05-34.55 18.23-33.23 21.4-31.9 23.38-28.13 25.35-24.35 25.35-17.45L25.35-17.45Q25.35-7.7 21.48-3.85 17.6 0 11.35 0L11.35 0 3 0 3-34.55 10.7-34.55ZM11.65-29.8L9.35-29.8 9.35-4.75 11.7-4.75Q13.95-4.75 15.48-5.8 17-6.85 17.88-9.65 18.75-12.45 18.75-17.45L18.75-17.45Q18.75-22.55 17.82-25.25 16.9-27.95 15.38-28.88 13.85-29.8 11.65-29.8L11.65-29.8ZM41.6-27.1Q42.75-27.1 43.65-26.75L43.65-26.75 42.65-20.85Q41.65-21.1 40.8-21.1L40.8-21.1Q38.9-21.1 37.8-19.45 36.7-17.8 36.1-14.55L36.1-14.55 36.1 0 29.95 0 29.95-26.45 35.3-26.45 35.75-21.85Q37.6-27.1 41.6-27.1L41.6-27.1ZM63.4-6.4Q63.4-5.1 63.75-4.48 64.09-3.85 64.9-3.45L64.9-3.45 63.65 0.65Q61.59 0.4 60.37-0.45 59.15-1.3 58.55-3.05L58.55-3.05Q56.25 0.75 52.1 0.75L52.1 0.75Q48.8 0.75 46.85-1.48 44.9-3.7 44.9-7.4L44.9-7.4Q44.9-11.7 47.57-13.95 50.25-16.2 55.35-16.2L55.35-16.2 57.4-16.2 57.4-18.05Q57.4-20.55 56.52-21.58 55.65-22.6 53.7-22.6L53.7-22.6Q51.35-22.6 47.85-21.3L47.85-21.3 46.45-25.3Q48.45-26.2 50.6-26.68 52.75-27.15 54.7-27.15L54.7-27.15Q63.4-27.15 63.4-18.35L63.4-18.35 63.4-6.4ZM53.75-3.7Q56.15-3.7 57.4-7L57.4-7 57.4-12.55 55.95-12.55Q53.4-12.55 52.22-11.4 51.05-10.25 51.05-7.85L51.05-7.85Q51.05-5.8 51.75-4.75 52.45-3.7 53.75-3.7L53.75-3.7ZM91.24-26.45L96.94-26.45 92.39 0 84.89 0 81.94-20.85 79.04 0 71.59 0 66.94-26.45 72.89-26.45 75.59-4.6 78.94-26.45 85.19-26.45 88.39-4.6 91.24-26.45ZM128.94-26.45L121.94 0.1Q120.64 4.9 117.74 7.65 114.84 10.4 109.99 10.85L109.99 10.85 109.29 6.5Q112.44 5.85 114.01 4.42 115.59 3 116.49 0L116.49 0 114.19 0 107.49-26.45 113.74-26.45 118.14-4.1 122.84-26.45 128.94-26.45ZM141.24-27.15Q146.24-27.15 149.01-23.65 151.79-20.15 151.79-13.25L151.79-13.25Q151.79-6.65 148.99-2.95 146.19 0.75 141.24 0.75L141.24 0.75Q136.29 0.75 133.49-2.88 130.69-6.5 130.69-13.25L130.69-13.25Q130.69-19.95 133.49-23.55 136.29-27.15 141.24-27.15L141.24-27.15ZM141.24-22.5Q139.09-22.5 138.09-20.38 137.09-18.25 137.09-13.25L137.09-13.25Q137.09-8.2 138.09-6.08 139.09-3.95 141.24-3.95L141.24-3.95Q143.39-3.95 144.39-6.08 145.39-8.2 145.39-13.25L145.39-13.25Q145.39-18.3 144.39-20.4 143.39-22.5 141.24-22.5L141.24-22.5ZM174.48-26.45L174.48 0 169.13 0 168.83-3.35Q167.58-1.3 166.03-0.28 164.48 0.75 162.43 0.75L162.43 0.75Q159.53 0.75 157.86-1.3 156.18-3.35 156.18-6.65L156.18-6.65 156.18-26.45 162.33-26.45 162.33-7Q162.33-3.9 164.43-3.9L164.43-3.9Q165.63-3.9 166.58-4.83 167.53-5.75 168.33-7.45L168.33-7.45 168.33-26.45 174.48-26.45ZM191.83-27.1Q192.98-27.1 193.88-26.75L193.88-26.75 192.88-20.85Q191.88-21.1 191.03-21.1L191.03-21.1Q189.13-21.1 188.03-19.45 186.93-17.8 186.33-14.55L186.33-14.55 186.33 0 180.18 0 180.18-26.45 185.53-26.45 185.98-21.85Q187.83-27.1 191.83-27.1L191.83-27.1ZM213.93-27.15Q218.63-27.15 221.88-24.05L221.88-24.05 219.53-20.7Q218.13-21.7 216.88-22.2 215.63-22.7 214.33-22.7L214.33-22.7Q212.88-22.7 212.05-21.93 211.23-21.15 211.23-19.8L211.23-19.8Q211.23-18.45 212.15-17.63 213.08-16.8 215.88-15.7L215.88-15.7Q219.33-14.35 220.98-12.5 222.63-10.65 222.63-7.55L222.63-7.55Q222.63-3.7 219.93-1.48 217.23 0.75 213.08 0.75L213.08 0.75Q210.38 0.75 208.1-0.23 205.83-1.2 204.13-2.95L204.13-2.95 207.13-6.25Q209.93-3.8 212.83-3.8L212.83-3.8Q214.48-3.8 215.43-4.67 216.38-5.55 216.38-7.1L216.38-7.1Q216.38-8.25 215.98-8.97 215.58-9.7 214.58-10.33 213.58-10.95 211.58-11.7L211.58-11.7Q208.13-13.05 206.65-14.85 205.18-16.65 205.18-19.45L205.18-19.45Q205.18-22.8 207.55-24.98 209.93-27.15 213.93-27.15L213.93-27.15ZM235.87-27.15Q240.87-27.15 243.65-23.65 246.42-20.15 246.42-13.25L246.42-13.25Q246.42-6.65 243.62-2.95 240.82 0.75 235.87 0.75L235.87 0.75Q230.92 0.75 228.12-2.88 225.32-6.5 225.32-13.25L225.32-13.25Q225.32-19.95 228.12-23.55 230.92-27.15 235.87-27.15L235.87-27.15ZM235.87-22.5Q233.72-22.5 232.72-20.38 231.72-18.25 231.72-13.25L231.72-13.25Q231.72-8.2 232.72-6.08 233.72-3.95 235.87-3.95L235.87-3.95Q238.02-3.95 239.02-6.08 240.02-8.2 240.02-13.25L240.02-13.25Q240.02-18.3 239.02-20.4 238.02-22.5 235.87-22.5L235.87-22.5ZM263.32-27.15Q266.17-27.15 267.82-25.1 269.47-23.05 269.47-19.6L269.47-19.6 269.47 0 263.32 0 263.32-18.9Q263.32-20.8 262.8-21.63 262.27-22.45 261.27-22.45L261.27-22.45Q259.17-22.45 257.12-18.5L257.12-18.5 257.12 0 250.97 0 250.97-26.45 256.32-26.45 256.77-23Q258.12-25.1 259.65-26.13 261.17-27.15 263.32-27.15L263.32-27.15ZM292.97-29.85L294.52-25.1Q293.47-24.6 291.99-24.4 290.52-24.2 288.32-24.2L288.32-24.2Q290.42-23.2 291.44-21.53 292.47-19.85 292.47-17.4L292.47-17.4Q292.47-13.4 290.02-10.95 287.57-8.5 283.37-8.5L283.37-8.5Q282.12-8.5 280.82-8.9L280.82-8.9Q279.92-8.15 279.92-6.85L279.92-6.85Q279.92-5.85 280.47-5.35 281.02-4.85 282.52-4.85L282.52-4.85 285.32-4.85Q289.32-4.85 291.67-2.78 294.02-0.7 294.02 2.5L294.02 2.5Q294.02 6.3 291.09 8.58 288.17 10.85 282.77 10.85L282.77 10.85Q277.07 10.85 274.79 8.75 272.52 6.65 272.52 2.6L272.52 2.6 277.97 2.6Q277.97 4.75 278.97 5.65 279.97 6.55 282.82 6.55L282.82 6.55Q285.57 6.55 286.72 5.6 287.87 4.65 287.87 2.9L287.87 2.9Q287.87 1.2 286.92 0.4 285.97-0.4 283.97-0.4L283.97-0.4 282.07-0.4Q278.27-0.4 276.52-1.75 274.77-3.1 274.77-5.45L274.77-5.45Q274.77-6.8 275.49-8.03 276.22-9.25 277.47-10.2L277.47-10.2Q275.42-11.5 274.47-13.3 273.52-15.1 273.52-17.7L273.52-17.7Q273.52-22.05 276.12-24.58 278.72-27.1 283.12-27.1L283.12-27.1Q286.37-27.1 288.49-27.8 290.62-28.5 292.97-29.85L292.97-29.85ZM283.12-23Q281.37-23 280.47-21.75 279.57-20.5 279.57-17.8L279.57-17.8Q279.57-15.25 280.47-13.88 281.37-12.5 283.07-12.5L283.07-12.5Q284.82-12.5 285.67-13.73 286.52-14.95 286.52-17.85L286.52-17.85Q286.52-20.55 285.69-21.78 284.87-23 283.12-23L283.12-23ZM299.77-7.05Q301.47-7.05 302.52-5.9 303.56-4.75 303.56-3.15L303.56-3.15Q303.56-1.55 302.52-0.4 301.47 0.75 299.77 0.75L299.77 0.75Q298.12 0.75 297.04-0.4 295.97-1.55 295.97-3.15L295.97-3.15Q295.97-4.75 297.04-5.9 298.12-7.05 299.77-7.05L299.77-7.05Z" opacity="1" transform="matrix(1,0,0,1,0,0)" fill="#000000" class="slogan-text-1" data-fill-palette-color="secondary" id="text-1"></path></svg></g></svg></g></svg></g></svg></g><g><svg viewBox="0 0 148.14673584101598 148.14673584101598" height="148.14673584101598" width="148.14673584101598"><g><svg></svg></g><g id="icon-0"><svg viewBox="0 0 148.14673584101598 148.14673584101598" height="148.14673584101598" width="148.14673584101598"><g><path d="M0 74.073c0-40.91 33.164-74.073 74.073-74.073 40.91 0 74.073 33.164 74.074 74.073 0 40.91-33.164 74.073-74.074 74.074-40.91 0-74.073-33.164-74.073-74.074zM74.073 143.134c38.141 0 69.061-30.92 69.061-69.061 0-38.141-30.92-69.061-69.061-69.06-38.141 0-69.061 30.92-69.06 69.06 0 38.141 30.92 69.061 69.06 69.061z" data-fill-palette-color="tertiary" fill="#261f20" stroke="transparent"></path></g><g transform="matrix(1,0,0,1,49.00000690436421,30.8573289381268)"><svg viewBox="0 0 50.146722032287556 86.43207796476239" height="86.43207796476239" width="50.146722032287556"><g><svg xmlns="http://www.w3.org/2000/svg" xmlns:xlink="http://www.w3.org/1999/xlink" version="1.1" x="0" y="0" viewBox="21.679106830508616 1 56.85827385947762 98" enable-background="new 0 0 100 100" xml:space="preserve" height="86.43207796476239" width="50.146722032287556" class="icon-dxe-0" data-fill-palette-color="accent" id="dxe-0"><g fill="#261f20" data-fill-palette-color="accent"><path fill-rule="evenodd" clip-rule="evenodd" d="M30.545 28.822C29.38 36.039 30.875 43.672 37.045 47.863 30.758 19.81 45.756 8.664 59.646 1 43.466 24.046 76.542 24.644 78.423 51.13 80.028 73.71 64.507 91.317 46.639 99 46.845 76.175 24.089 73.067 21.801 54.397 20.905 47.094 25.062 33.766 30.545 28.822" fill="#261f20" data-fill-palette-color="accent"></path></g></svg></g></svg></g></svg></g></svg></g></svg></g><defs></defs></svg><rect width="395.52" height="102.81430712874845" fill="none" stroke="none" visibility="hidden"></rect></g></svg></g></svg>